HIERARCHY
ROOT Hips
{
	OFFSET 0.000000 0.000000 0.000000
	CHANNELS 6 Xposition Yposition Zposition Zrotation Yrotation Xrotation 
	JOINT LHipJoint
	{
		OFFSET 0.000000 0.000000 0.000000
		CHANNELS 3 Zrotation Yrotation Xrotation
		JOINT LeftUpLeg
		{
			OFFSET 1.363060 -1.794630 0.839290
			CHANNELS 3 Zrotation Yrotation Xrotation
			JOINT LeftLeg
			{
				OFFSET 2.448110 -6.726130 0.000000
				CHANNELS 3 Zrotation Yrotation Xrotation
				JOINT LeftFoot
				{
					OFFSET 2.562200 -7.039590 0.000000
					CHANNELS 3 Zrotation Yrotation Xrotation
					JOINT LeftToeBase
					{
						OFFSET 0.157640 -0.433110 2.322550
						CHANNELS 3 Zrotation Yrotation Xrotation
						End Site
						{
							OFFSET 0.000000 0.000000 0.000000
						}
					}
				}
			}
		}
	}
	JOINT RHipJoint
	{
		OFFSET 0.000000 0.000000 0.000000
		CHANNELS 3 Zrotation Yrotation Xrotation
		JOINT RightUpLeg
		{
			OFFSET -1.305520 -1.794630 0.839290
			CHANNELS 3 Zrotation Yrotation Xrotation
			JOINT RightLeg
			{
				OFFSET -2.542530 -6.985550 0.000000
				CHANNELS 3 Zrotation Yrotation Xrotation
				JOINT RightFoot
				{
					OFFSET -2.568260 -7.056230 0.000000
					CHANNELS 3 Zrotation Yrotation Xrotation
					JOINT RightToeBase
					{
						OFFSET -0.164730 -0.452590 2.363150
						CHANNELS 3 Zrotation Yrotation Xrotation
						End Site
						{
							OFFSET 0.000000 0.000000 0.000000
						}
					}
				}
			}
		}
	}
}
MOTION
Frames: 11
Frame Time: 0.008333
10.367294 16.110501 2.432732 -173.786605 -85.463584 -173.956693 -11.873418 5.980234 -0.028838 -3.553127 12.588408 1.288267 -0.379892 2.431337 36.375935 0.924823 0.601443 16.022704 -0.187800 0.000000 -84.596000 8.430903 0.027922 4.386442 11.585724 7.213704 -50.793983 1.441901 -2.342846 36.524397 -0.971306 -3.545520 -2.717077 -0.896200 0.000000 -23.723900
10.173086 16.048890 2.413432 -166.443148 -85.819973 178.537720 -11.891762 5.746040 -0.141493 -2.606497 13.289869 0.178295 -0.108317 2.463440 39.397502 1.068283 1.092379 17.310729 -0.067499 -0.000000 -81.570900 8.487907 -0.177542 4.310915 12.276474 7.001461 -51.485036 1.373475 -2.692089 39.563782 -0.950252 -3.101324 -4.040761 -0.681500 0.000001 -21.683100
9.986803 15.984279 2.393923 -158.787413 -86.207824 170.649721 -12.008986 5.436367 -0.287708 -1.638365 13.963496 -0.912877 0.174739 2.473217 42.518156 1.231458 1.939772 18.295329 0.210600 0.000000 -77.642900 8.449384 -0.440724 4.197600 12.979219 6.739206 -52.010376 1.335019 -3.025830 42.493516 -0.933965 -2.647075 -5.648829 -0.468500 0.000000 -19.512100
9.808326 15.917688 2.374225 -150.773605 -86.589350 162.338838 -12.236144 5.074952 -0.460917 -0.659376 14.586641 -1.981309 0.453164 2.476220 45.703051 1.411356 3.151428 18.893616 0.655400 0.000001 -72.961300 8.309758 -0.741089 4.042293 13.699854 6.440638 -52.326012 1.318391 -3.330193 45.248188 -0.931761 -2.236495 -7.471612 -0.271800 -0.000001 -17.240600
9.637334 15.850224 2.354082 -142.657680 -86.917961 153.872486 -12.559867 4.696266 -0.654258 0.303233 15.136573 -3.029366 0.709419 2.495357 48.914161 1.603641 4.698332 19.043402 1.246699 -0.000000 -67.733000 8.085289 -1.041830 3.842637 14.430371 6.120362 -52.408545 1.311577 -3.591238 47.783503 -0.950980 -1.912506 -9.418393 -0.095700 0.000000 -15.070500
9.473170 15.783111 2.333585 -134.543522 -87.168723 145.369341 -12.954858 4.324036 -0.859594 1.241709 15.593781 -4.070301 0.936063 2.548592 52.123240 1.802398 6.504554 18.712103 1.929000 0.000001 -62.213100 7.797989 -1.319439 3.604621 15.174592 5.797358 -52.255266 1.308337 -3.802165 50.066216 -0.998646 -1.711237 -11.416558 0.064900 0.000000 -13.021100
9.315067 15.717599 2.312380 -126.797784 -87.329708 137.214419 -13.379119 3.980252 -1.067150 2.124710 15.932354 -5.123907 1.131556 2.649984 55.304655 2.001341 8.472127 17.902726 2.627500 -0.000000 -56.654500 7.485648 -1.550819 3.337364 15.914478 5.479891 -51.891570 1.301571 -3.961830 52.085016 -1.076395 -1.651742 -13.380378 0.219500 -0.000000 -11.333000
9.161824 15.654900 2.290702 -119.501366 -87.405530 129.509829 -13.806631 3.670547 -1.265850 2.943014 16.136029 -6.216894 1.303684 2.801650 58.442305 2.193865 10.479863 16.649157 3.255400 0.000001 -51.283000 7.168840 -1.736164 3.055241 16.648280 5.181626 -51.354076 1.290599 -4.075470 53.837993 -1.184245 -1.742062 -15.260087 0.380299 -0.000000 -9.962100
9.012618 15.596180 2.268301 -112.863362 -87.411783 122.483075 -14.209210 3.399096 -1.444263 3.660955 16.186411 -7.379713 1.461456 3.000054 61.522709 2.373992 12.418644 15.010430 3.739200 -0.000000 -46.248401 6.872672 -1.874882 2.772388 17.351997 4.906662 -50.698706 1.272771 -4.150930 55.342973 -1.316657 -1.970955 -17.002798 0.555300 0.000001 -9.033700
8.866554 15.542454 2.245194 -106.931524 -87.365450 116.201765 -14.573040 3.163789 -1.592716 4.254783 16.078650 -8.642267 1.614143 3.235638 64.535777 2.535722 14.189548 13.056074 4.024300 0.000000 -41.592300 6.609011 -1.974374 2.503247 18.010533 4.665237 -49.982073 1.248064 -4.196915 56.625381 -1.466878 -2.315726 -18.584842 0.748700 0.000000 -8.496000
8.722721 15.494568 2.221870 -101.678530 -87.271900 110.658206 -14.895696 2.957645 -1.704195 4.721502 15.821683 -10.029680 1.768795 3.495905 67.468276 2.674297 15.716041 10.878223 4.087100 0.000000 -37.467200 6.378404 -2.045917 2.261513 18.625791 4.478281 -49.252565 1.218355 -4.221391 57.710979 -1.628530 -2.749096 -20.000947 0.960400 -0.000000 -8.222000
